<svg width="212" height="75" viewBox="0 0 212 75" fill="none" xmlns="http://www.w3.org/2000/svg">
<path d="M91.4176 34.5469H88.3068C88.25 34.1444 88.134 33.7869 87.9588 33.4744C87.7836 33.1572 87.5587 32.8873 87.2841 32.6648C87.0095 32.4422 86.6922 32.2718 86.3324 32.1534C85.9773 32.035 85.5914 31.9759 85.1747 31.9759C84.4219 31.9759 83.7661 32.1629 83.2074 32.5369C82.6487 32.9062 82.2154 33.446 81.9077 34.1562C81.5999 34.8617 81.446 35.7187 81.446 36.7273C81.446 37.7642 81.5999 38.6354 81.9077 39.3409C82.2202 40.0464 82.6558 40.5791 83.2145 40.9389C83.7732 41.2988 84.4195 41.4787 85.1534 41.4787C85.5653 41.4787 85.9465 41.4242 86.2969 41.3153C86.652 41.2064 86.9669 41.0478 87.2415 40.8395C87.5161 40.6264 87.7434 40.3684 87.9233 40.0653C88.108 39.7623 88.2358 39.4167 88.3068 39.0284L91.4176 39.0426C91.3371 39.7102 91.1359 40.3542 90.8139 40.9744C90.4967 41.59 90.0682 42.1416 89.5284 42.6293C88.9934 43.1122 88.3542 43.4957 87.6108 43.7798C86.8722 44.0592 86.0365 44.1989 85.1037 44.1989C83.8064 44.1989 82.6463 43.9053 81.6236 43.3182C80.6056 42.7311 79.8007 41.8812 79.2088 40.7685C78.6217 39.6558 78.3281 38.3087 78.3281 36.7273C78.3281 35.1411 78.6264 33.7917 79.223 32.679C79.8196 31.5663 80.6293 30.7187 81.652 30.1364C82.6747 29.5492 83.8253 29.2557 85.1037 29.2557C85.9465 29.2557 86.7278 29.3741 87.4475 29.6108C88.1719 29.8475 88.8135 30.1932 89.3722 30.6477C89.9309 31.0975 90.3854 31.6491 90.7358 32.3026C91.0909 32.956 91.3182 33.7041 91.4176 34.5469ZM98.495 44.2131C97.3918 44.2131 96.4377 43.9787 95.6328 43.5099C94.8326 43.0365 94.2147 42.3783 93.7791 41.5355C93.3435 40.688 93.1257 39.7055 93.1257 38.5881C93.1257 37.4612 93.3435 36.4763 93.7791 35.6335C94.2147 34.786 94.8326 34.1278 95.6328 33.6591C96.4377 33.1856 97.3918 32.9489 98.495 32.9489C99.5983 32.9489 100.55 33.1856 101.35 33.6591C102.155 34.1278 102.775 34.786 103.211 35.6335C103.647 36.4763 103.864 37.4612 103.864 38.5881C103.864 39.7055 103.647 40.688 103.211 41.5355C102.775 42.3783 102.155 43.0365 101.35 43.5099C100.55 43.9787 99.5983 44.2131 98.495 44.2131ZM98.5092 41.8693C99.0111 41.8693 99.4302 41.7273 99.7663 41.4432C100.103 41.1544 100.356 40.7614 100.526 40.2642C100.701 39.767 100.789 39.2012 100.789 38.5668C100.789 37.9323 100.701 37.3665 100.526 36.8693C100.356 36.3722 100.103 35.9792 99.7663 35.6903C99.4302 35.4015 99.0111 35.2571 98.5092 35.2571C98.0026 35.2571 97.5765 35.4015 97.2308 35.6903C96.8899 35.9792 96.6319 36.3722 96.4567 36.8693C96.2862 37.3665 96.201 37.9323 96.201 38.5668C96.201 39.2012 96.2862 39.767 96.4567 40.2642C96.6319 40.7614 96.8899 41.1544 97.2308 41.4432C97.5765 41.7273 98.0026 41.8693 98.5092 41.8693ZM108.857 37.6932V44H105.832V33.0909H108.715V35.0156H108.843C109.085 34.3812 109.489 33.8793 110.058 33.5099C110.626 33.1359 111.315 32.9489 112.124 32.9489C112.882 32.9489 113.542 33.1146 114.106 33.446C114.669 33.7775 115.107 34.2509 115.42 34.8665C115.732 35.4773 115.889 36.2064 115.889 37.054V44H112.863V37.5938C112.868 36.9261 112.697 36.4053 112.352 36.0312C112.006 35.6525 111.53 35.4631 110.924 35.4631C110.517 35.4631 110.157 35.5507 109.844 35.7259C109.537 35.901 109.295 36.1567 109.12 36.4929C108.95 36.8243 108.862 37.2244 108.857 37.6932ZM126.221 33.6378C126.164 33.0649 125.92 32.6198 125.489 32.3026C125.058 31.9853 124.473 31.8267 123.735 31.8267C123.233 31.8267 122.809 31.8977 122.463 32.0398C122.118 32.1771 121.853 32.3688 121.668 32.6151C121.488 32.8613 121.398 33.1406 121.398 33.4531C121.389 33.7135 121.443 33.9408 121.561 34.1349C121.685 34.3291 121.853 34.4972 122.066 34.6392C122.279 34.7765 122.525 34.8973 122.804 35.0014C123.084 35.1009 123.382 35.1861 123.699 35.2571L125.006 35.5696C125.641 35.7116 126.223 35.901 126.753 36.1378C127.284 36.3745 127.743 36.6657 128.131 37.0114C128.519 37.357 128.82 37.7642 129.033 38.233C129.251 38.7017 129.362 39.2391 129.367 39.8452C129.362 40.7353 129.135 41.5071 128.685 42.1605C128.24 42.8092 127.596 43.3134 126.753 43.6733C125.915 44.0284 124.904 44.206 123.721 44.206C122.546 44.206 121.524 44.026 120.652 43.6662C119.786 43.3063 119.109 42.7737 118.621 42.0682C118.138 41.358 117.885 40.4796 117.861 39.4332H120.837C120.87 39.9209 121.01 40.3281 121.256 40.6548C121.507 40.9768 121.841 41.2206 122.257 41.3864C122.679 41.5473 123.155 41.6278 123.685 41.6278C124.206 41.6278 124.658 41.5521 125.042 41.4006C125.43 41.2491 125.73 41.0384 125.944 40.7685C126.157 40.4986 126.263 40.1884 126.263 39.8381C126.263 39.5114 126.166 39.2367 125.972 39.0142C125.783 38.7917 125.503 38.6023 125.134 38.446C124.769 38.2898 124.322 38.1477 123.792 38.0199L122.208 37.6222C120.981 37.3239 120.013 36.8575 119.303 36.223C118.593 35.5885 118.24 34.7339 118.245 33.6591C118.24 32.7784 118.474 32.009 118.948 31.3509C119.426 30.6927 120.082 30.179 120.915 29.8097C121.748 29.4403 122.695 29.2557 123.756 29.2557C124.836 29.2557 125.778 29.4403 126.583 29.8097C127.392 30.179 128.022 30.6927 128.472 31.3509C128.922 32.009 129.154 32.7713 129.168 33.6378H126.221ZM138.374 39.3551V33.0909H141.4V44H138.495V42.0185H138.381C138.135 42.6577 137.726 43.1714 137.153 43.5597C136.585 43.9479 135.891 44.142 135.072 44.142C134.343 44.142 133.701 43.9763 133.147 43.6449C132.593 43.3134 132.16 42.8423 131.847 42.2315C131.54 41.6207 131.383 40.8892 131.379 40.0369V33.0909H134.404V39.4972C134.409 40.1411 134.582 40.6501 134.923 41.0241C135.264 41.3982 135.72 41.5852 136.293 41.5852C136.658 41.5852 136.999 41.5024 137.316 41.3366C137.633 41.1662 137.889 40.9152 138.083 40.5838C138.282 40.2524 138.379 39.8428 138.374 39.3551ZM148.749 44.2131C147.632 44.2131 146.67 43.9763 145.865 43.5028C145.065 43.0246 144.45 42.3617 144.019 41.5142C143.593 40.6667 143.38 39.6913 143.38 38.5881C143.38 37.4706 143.595 36.4905 144.026 35.6477C144.462 34.8002 145.079 34.1397 145.88 33.6662C146.68 33.188 147.632 32.9489 148.735 32.9489C149.686 32.9489 150.52 33.1217 151.235 33.4673C151.95 33.813 152.516 34.2983 152.932 34.9233C153.349 35.5483 153.578 36.2822 153.621 37.125H150.766C150.685 36.5805 150.472 36.1425 150.127 35.8111C149.786 35.4749 149.338 35.3068 148.784 35.3068C148.316 35.3068 147.906 35.4347 147.556 35.6903C147.21 35.9413 146.94 36.3082 146.746 36.7912C146.552 37.2741 146.455 37.8589 146.455 38.5455C146.455 39.2415 146.55 39.8333 146.739 40.321C146.933 40.8087 147.205 41.1804 147.556 41.4361C147.906 41.6918 148.316 41.8196 148.784 41.8196C149.13 41.8196 149.44 41.7486 149.715 41.6065C149.994 41.4645 150.224 41.2585 150.404 40.9886C150.588 40.714 150.709 40.3849 150.766 40.0014H153.621C153.574 40.8348 153.346 41.5687 152.939 42.2031C152.537 42.8329 151.98 43.3253 151.27 43.6804C150.56 44.0355 149.72 44.2131 148.749 44.2131ZM160.487 44.2131C159.37 44.2131 158.409 43.9763 157.604 43.5028C156.804 43.0246 156.188 42.3617 155.757 41.5142C155.331 40.6667 155.118 39.6913 155.118 38.5881C155.118 37.4706 155.333 36.4905 155.764 35.6477C156.2 34.8002 156.818 34.1397 157.618 33.6662C158.418 33.188 159.37 32.9489 160.473 32.9489C161.425 32.9489 162.258 33.1217 162.973 33.4673C163.688 33.813 164.254 34.2983 164.67 34.9233C165.087 35.5483 165.317 36.2822 165.359 37.125H162.504C162.424 36.5805 162.211 36.1425 161.865 35.8111C161.524 35.4749 161.077 35.3068 160.523 35.3068C160.054 35.3068 159.644 35.4347 159.294 35.6903C158.948 35.9413 158.679 36.3082 158.484 36.7912C158.29 37.2741 158.193 37.8589 158.193 38.5455C158.193 39.2415 158.288 39.8333 158.477 40.321C158.671 40.8087 158.944 41.1804 159.294 41.4361C159.644 41.6918 160.054 41.8196 160.523 41.8196C160.868 41.8196 161.179 41.7486 161.453 41.6065C161.732 41.4645 161.962 41.2585 162.142 40.9886C162.327 40.714 162.447 40.3849 162.504 40.0014H165.359C165.312 40.8348 165.085 41.5687 164.678 42.2031C164.275 42.8329 163.719 43.3253 163.009 43.6804C162.298 44.0355 161.458 44.2131 160.487 44.2131ZM172.268 44.2131C171.146 44.2131 170.18 43.9858 169.37 43.5312C168.565 43.072 167.945 42.4233 167.51 41.5852C167.074 40.7424 166.856 39.7457 166.856 38.5952C166.856 37.473 167.074 36.4882 167.51 35.6406C167.945 34.7931 168.558 34.1326 169.349 33.6591C170.145 33.1856 171.077 32.9489 172.147 32.9489C172.867 32.9489 173.537 33.0649 174.157 33.2969C174.782 33.5241 175.327 33.8674 175.791 34.3267C176.26 34.786 176.624 35.3636 176.885 36.0597C177.145 36.7509 177.275 37.5606 177.275 38.4886V39.3196H168.064V37.4446H174.427C174.427 37.009 174.333 36.6231 174.143 36.2869C173.954 35.9508 173.691 35.688 173.355 35.4986C173.023 35.3045 172.637 35.2074 172.197 35.2074C171.738 35.2074 171.331 35.3139 170.976 35.527C170.625 35.7353 170.351 36.017 170.152 36.3722C169.953 36.7225 169.851 37.1132 169.846 37.544V39.3267C169.846 39.8665 169.946 40.3329 170.145 40.7259C170.348 41.1188 170.635 41.4219 171.004 41.6349C171.373 41.848 171.811 41.9545 172.318 41.9545C172.654 41.9545 172.962 41.9072 173.241 41.8125C173.52 41.7178 173.76 41.5758 173.958 41.3864C174.157 41.197 174.309 40.965 174.413 40.6903L177.211 40.875C177.069 41.5473 176.778 42.1345 176.338 42.6364C175.902 43.1335 175.339 43.5218 174.647 43.8011C173.961 44.0758 173.168 44.2131 172.268 44.2131ZM188.326 36.2017L185.556 36.3722C185.509 36.1354 185.407 35.9223 185.251 35.733C185.095 35.5388 184.889 35.3849 184.633 35.2713C184.382 35.1529 184.082 35.0938 183.731 35.0938C183.262 35.0938 182.867 35.1932 182.545 35.392C182.223 35.5862 182.062 35.8466 182.062 36.1733C182.062 36.4337 182.166 36.6539 182.375 36.8338C182.583 37.0137 182.94 37.1581 183.447 37.267L185.422 37.6648C186.482 37.8826 187.273 38.233 187.794 38.7159C188.315 39.1989 188.575 39.8333 188.575 40.6193C188.575 41.3343 188.364 41.9616 187.943 42.5014C187.526 43.0412 186.953 43.4626 186.224 43.7656C185.5 44.0639 184.664 44.2131 183.717 44.2131C182.273 44.2131 181.122 43.9124 180.265 43.3111C179.413 42.705 178.913 41.8812 178.767 40.8395L181.743 40.6832C181.833 41.1236 182.05 41.4598 182.396 41.6918C182.742 41.919 183.184 42.0327 183.724 42.0327C184.254 42.0327 184.681 41.9309 185.002 41.7273C185.329 41.5189 185.495 41.2514 185.5 40.9247C185.495 40.6501 185.379 40.4252 185.152 40.25C184.924 40.0701 184.574 39.9328 184.101 39.8381L182.211 39.4616C181.146 39.2486 180.353 38.8793 179.832 38.3537C179.316 37.8281 179.058 37.1581 179.058 36.3438C179.058 35.643 179.247 35.0393 179.626 34.5327C180.01 34.026 180.547 33.6354 181.238 33.3608C181.934 33.0862 182.749 32.9489 183.681 32.9489C185.059 32.9489 186.144 33.2401 186.934 33.8224C187.73 34.4048 188.194 35.1979 188.326 36.2017ZM199.557 36.2017L196.787 36.3722C196.74 36.1354 196.638 35.9223 196.482 35.733C196.325 35.5388 196.119 35.3849 195.864 35.2713C195.613 35.1529 195.312 35.0938 194.962 35.0938C194.493 35.0938 194.098 35.1932 193.776 35.392C193.454 35.5862 193.293 35.8466 193.293 36.1733C193.293 36.4337 193.397 36.6539 193.605 36.8338C193.813 37.0137 194.171 37.1581 194.678 37.267L196.652 37.6648C197.713 37.8826 198.503 38.233 199.024 38.7159C199.545 39.1989 199.805 39.8333 199.805 40.6193C199.805 41.3343 199.595 41.9616 199.173 42.5014C198.757 43.0412 198.184 43.4626 197.455 43.7656C196.73 44.0639 195.894 44.2131 194.947 44.2131C193.503 44.2131 192.353 43.9124 191.496 43.3111C190.643 42.705 190.144 41.8812 189.997 40.8395L192.973 40.6832C193.063 41.1236 193.281 41.4598 193.626 41.6918C193.972 41.919 194.415 42.0327 194.955 42.0327C195.485 42.0327 195.911 41.9309 196.233 41.7273C196.56 41.5189 196.725 41.2514 196.73 40.9247C196.725 40.6501 196.609 40.4252 196.382 40.25C196.155 40.0701 195.804 39.9328 195.331 39.8381L193.442 39.4616C192.376 39.2486 191.583 38.8793 191.063 38.3537C190.546 37.8281 190.288 37.1581 190.288 36.3438C190.288 35.643 190.478 35.0393 190.857 34.5327C191.24 34.026 191.777 33.6354 192.469 33.3608C193.165 33.0862 193.979 32.9489 194.912 32.9489C196.29 32.9489 197.374 33.2401 198.165 33.8224C198.96 34.4048 199.424 35.1979 199.557 36.2017Z" fill="#067BC2"/>
<g clip-path="url(#clip0_7_52)">
<path d="M7.29473 12.721C7.29473 5.81453 12.9684 0.442863 20.2632 0.442863H52.6842V67.9724H20.2632C12.9684 67.9724 7.29473 62.6008 7.29473 55.6943V12.721Z" fill="url(#paint0_linear_7_52)"/>
<path opacity="0.92" d="M72.1368 12.721C72.1368 5.81453 66.4631 0.442863 59.1684 0.442863H26.7473V67.9724H59.1684C66.4631 67.9724 72.1368 62.6008 72.1368 55.6943V12.721Z" fill="#067BC2"/>
<path d="M39.7158 0.442863V67.9724" stroke="white" stroke-opacity="0.55" stroke-width="3.73786" stroke-linecap="round"/>
<path d="M17.021 9.65142L39.7158 -0.324539L62.4105 9.65142L39.7158 19.6274L17.021 9.65142Z" fill="#ECC30B"/>
<path opacity="0.92" d="M25.1263 12.721V22.6969C25.1263 27.3012 31.6105 30.3707 39.7158 30.3707C47.821 30.3707 54.3052 27.3012 54.3052 22.6969V12.721L39.7158 18.86L25.1263 12.721Z" fill="#ECC30B"/>
<path d="M12.1579 62.6007C15.2914 62.6007 17.8316 60.1958 17.8316 57.2291C17.8316 54.2624 15.2914 51.8574 12.1579 51.8574C9.02439 51.8574 6.48419 54.2624 6.48419 57.2291C6.48419 60.1958 9.02439 62.6007 12.1579 62.6007Z" fill="#84BCDA"/>
<path d="M67.2737 62.6007C70.4071 62.6007 72.9473 60.1958 72.9473 57.2291C72.9473 54.2624 70.4071 51.8574 67.2737 51.8574C64.1402 51.8574 61.6 54.2624 61.6 57.2291C61.6 60.1958 64.1402 62.6007 67.2737 62.6007Z" fill="#84BCDA"/>
<path d="M39.7158 74.7282C42.8493 74.7282 45.3895 72.3233 45.3895 69.3566C45.3895 66.3899 42.8493 63.9849 39.7158 63.9849C36.5823 63.9849 34.0421 66.3899 34.0421 69.3566C34.0421 72.3233 36.5823 74.7282 39.7158 74.7282Z" fill="#D56062"/>
<path opacity="0.8" d="M17.8316 57.229H61.6" stroke="#84BCDA" stroke-width="3.73786" stroke-linecap="round"/>
<path opacity="0.65" d="M39.7158 66.4376L15.4 57.229" stroke="#D56062" stroke-width="3.73786" stroke-linecap="round"/>
<path opacity="0.65" d="M39.7158 66.4376L64.0316 57.229" stroke="#D56062" stroke-width="3.73786" stroke-linecap="round"/>
</g>
<defs>
<linearGradient id="paint0_linear_7_52" x1="-12.1579" y1="-19.5091" x2="86.6368" y2="71.7966" gradientUnits="userSpaceOnUse">
<stop stop-color="#067BC2"/>
<stop offset="1" stop-color="#84BCDA"/>
</linearGradient>
<clipPath id="clip0_7_52">
<rect width="77" height="75" fill="white"/>
</clipPath>
</defs>
</svg>
