<svg width="29" height="27" viewBox="0 0 29 27" fill="none" xmlns="http://www.w3.org/2000/svg">
<g clip-path="url(#clip0_28_23)">
<path d="M27.7878 10.118C27.6325 9.65019 27.1989 9.31924 26.6886 9.31924H17.8741L15.1507 0.937318C14.9584 0.512999 14.5387 0.223648 14.0524 0.223648C13.5662 0.223648 13.1455 0.512999 12.957 0.929922L12.9542 0.937318L10.2308 9.31924H1.41713C0.779269 9.31924 0.261581 9.83693 0.261581 10.4748C0.261581 10.8575 0.448319 11.1977 0.734896 11.4076L0.738594 11.4094L7.86882 16.5891L5.14541 24.9719C5.10936 25.0791 5.08902 25.2021 5.08902 25.3297C5.08902 25.9675 5.60671 26.4852 6.24457 26.4852C6.49972 26.4852 6.73545 26.4029 6.92681 26.2624L6.92311 26.2643L14.0543 21.0828L21.1845 26.2643C21.3722 26.402 21.6079 26.4843 21.863 26.4843C22.5018 26.4843 23.0195 25.9666 23.0195 25.3278C23.0195 25.2002 22.9992 25.0773 22.9603 24.9627L22.9631 24.971L20.2388 16.59L27.3709 11.4094C27.6611 11.1959 27.8469 10.8566 27.8469 10.4729C27.8469 10.3463 27.8266 10.2233 27.7887 10.1096L27.7915 10.118H27.7878Z" fill="white"/>
</g>
<defs>
<clipPath id="clip0_28_23">
<rect width="28.1031" height="26.6239" fill="white"/>
</clipPath>
</defs>
</svg>
